<mxfile host="app.diagrams.net" modified="2021-03-20T10:46:13.819Z" agent="5.0 (Windows NT 10.0; Win64; x64) AppleWebKit/537.36 (KHTML, like Gecko) Chrome/89.0.4389.90 Safari/537.36" etag="qWCbHlOmopamij5KDRch" version="14.4.4" type="github">
  <diagram id="FAe5shbhwn8-BYjlH6H7" name="Page-1">
    <mxGraphModel dx="716" dy="400" grid="1" gridSize="10" guides="1" tooltips="1" connect="1" arrows="1" fold="1" page="1" pageScale="1" pageWidth="827" pageHeight="1169" math="0" shadow="0">
      <root>
        <mxCell id="0" />
        <mxCell id="1" parent="0" />
        <mxCell id="Mld85a_b6J8EIfoz08u_-1" value="人物" style="rhombus;whiteSpace=wrap;html=1;" vertex="1" parent="1">
          <mxGeometry x="210" y="100" width="70" height="70" as="geometry" />
        </mxCell>
        <mxCell id="Mld85a_b6J8EIfoz08u_-2" value="" style="endArrow=none;dashed=1;html=1;exitX=0;exitY=0;exitDx=0;exitDy=0;" edge="1" parent="1" source="Mld85a_b6J8EIfoz08u_-1">
          <mxGeometry width="50" height="50" relative="1" as="geometry">
            <mxPoint x="330" y="210" as="sourcePoint" />
            <mxPoint x="150" y="90" as="targetPoint" />
            <Array as="points">
              <mxPoint x="220" y="90" />
            </Array>
          </mxGeometry>
        </mxCell>
        <mxCell id="Mld85a_b6J8EIfoz08u_-3" value="初设：关键词设定" style="edgeLabel;html=1;align=center;verticalAlign=middle;resizable=0;points=[];" vertex="1" connectable="0" parent="Mld85a_b6J8EIfoz08u_-2">
          <mxGeometry x="0.8082" relative="1" as="geometry">
            <mxPoint as="offset" />
          </mxGeometry>
        </mxCell>
        <mxCell id="Mld85a_b6J8EIfoz08u_-4" value="" style="endArrow=none;dashed=1;html=1;exitX=0.052;exitY=0.595;exitDx=0;exitDy=0;exitPerimeter=0;" edge="1" parent="1" source="Mld85a_b6J8EIfoz08u_-1">
          <mxGeometry width="50" height="50" relative="1" as="geometry">
            <mxPoint x="330" y="210" as="sourcePoint" />
            <mxPoint x="110" y="142" as="targetPoint" />
          </mxGeometry>
        </mxCell>
        <mxCell id="Mld85a_b6J8EIfoz08u_-5" value="完善：由关键词查找&lt;br&gt;同类人物做参考" style="edgeLabel;html=1;align=center;verticalAlign=middle;resizable=0;points=[];" vertex="1" connectable="0" parent="Mld85a_b6J8EIfoz08u_-4">
          <mxGeometry x="0.871" y="1" relative="1" as="geometry">
            <mxPoint as="offset" />
          </mxGeometry>
        </mxCell>
        <mxCell id="Mld85a_b6J8EIfoz08u_-6" value="剧情" style="rhombus;whiteSpace=wrap;html=1;" vertex="1" parent="1">
          <mxGeometry x="160" y="240" width="70" height="70" as="geometry" />
        </mxCell>
      </root>
    </mxGraphModel>
  </diagram>
</mxfile>
